<?xml version="1.0" encoding="UTF-8"?>
<svg xmlns="http://www.w3.org/2000/svg" xmlns:xlink="http://www.w3.org/1999/xlink" width="35px" height="35px" viewBox="0 0 35 35" version="1.1">
<g id="surface1">
<path style=" stroke:none;fill-rule:nonzero;fill:rgb(100%,31.764706%,45.490196%);fill-opacity:1;" d="M 24.808594 5.59375 L 9.972656 5.59375 C 8.09375 5.59375 6.566406 7.058594 6.566406 8.859375 L 6.566406 26.164062 C 6.566406 27.960938 8.09375 29.429688 9.972656 29.429688 L 19.652344 29.429688 C 21.871094 29.429688 23.980469 28.582031 25.582031 27.042969 C 27.253906 25.4375 28.210938 23.183594 28.210938 20.867188 L 28.210938 8.859375 C 28.210938 7.058594 26.683594 5.59375 24.804688 5.59375 Z M 12.722656 21.980469 L 11.6875 21.980469 C 11.148438 21.980469 10.714844 21.542969 10.714844 21.003906 C 10.714844 20.46875 11.148438 20.03125 11.6875 20.03125 L 12.722656 20.03125 C 13.261719 20.03125 13.695312 20.46875 13.695312 21.003906 C 13.695312 21.542969 13.261719 21.980469 12.722656 21.980469 Z M 12.722656 17.84375 L 11.6875 17.84375 C 11.148438 17.84375 10.714844 17.40625 10.714844 16.871094 C 10.714844 16.332031 11.148438 15.898438 11.6875 15.898438 L 12.722656 15.898438 C 13.261719 15.898438 13.695312 16.332031 13.695312 16.871094 C 13.695312 17.40625 13.261719 17.84375 12.722656 17.84375 Z M 12.722656 13.71875 L 11.6875 13.71875 C 11.148438 13.71875 10.714844 13.28125 10.714844 12.742188 C 10.714844 12.207031 11.148438 11.769531 11.6875 11.769531 L 12.722656 11.769531 C 13.261719 11.769531 13.695312 12.207031 13.695312 12.742188 C 13.695312 13.28125 13.261719 13.71875 12.722656 13.71875 Z M 23.089844 21.96875 L 15.835938 21.96875 C 15.296875 21.96875 14.859375 21.53125 14.859375 20.996094 C 14.859375 20.457031 15.296875 20.023438 15.835938 20.023438 L 23.089844 20.023438 C 23.628906 20.023438 24.0625 20.457031 24.0625 20.996094 C 24.0625 21.53125 23.628906 21.96875 23.089844 21.96875 Z M 23.089844 17.839844 L 15.835938 17.839844 C 15.296875 17.839844 14.859375 17.40625 14.859375 16.867188 C 14.859375 16.332031 15.296875 15.894531 15.835938 15.894531 L 23.089844 15.894531 C 23.628906 15.894531 24.0625 16.332031 24.0625 16.867188 C 24.0625 17.40625 23.628906 17.839844 23.089844 17.839844 Z M 23.089844 13.714844 L 15.835938 13.714844 C 15.296875 13.714844 14.859375 13.28125 14.859375 12.742188 C 14.859375 12.207031 15.296875 11.769531 15.835938 11.769531 L 23.089844 11.769531 C 23.628906 11.769531 24.0625 12.207031 24.0625 12.742188 C 24.0625 13.28125 23.628906 13.714844 23.089844 13.714844 Z M 23.089844 13.714844 "/>
</g>
</svg>
